<?xml version="1.0" standalone="no"?>
<!DOCTYPE svg PUBLIC "-//W3C//DTD SVG 20010904//EN"
 "http://www.w3.org/TR/2001/REC-SVG-20010904/DTD/svg10.dtd">
<svg version="1.0" xmlns="http://www.w3.org/2000/svg"
 width="224.000000pt" height="225.000000pt" viewBox="0 0 224.000000 225.000000"
 preserveAspectRatio="xMidYMid meet">

<g transform="translate(0.000000,225.000000) scale(0.100000,-0.100000)"
fill="#000000" stroke="none">
<path d="M1023 2236 c-193 -63 -296 -259 -233 -445 l21 -64 -147 -148 -147
-147 -46 21 c-64 29 -175 28 -254 -2 -201 -79 -279 -339 -156 -525 85 -127
260 -184 407 -131 l53 19 145 -145 145 -145 -21 -65 c-57 -166 18 -342 178
-421 59 -30 76 -33 152 -33 76 0 93 4 152 33 157 77 234 257 180 417 l-21 60
142 145 c98 100 148 144 162 143 11 -1 51 -9 89 -18 156 -36 314 43 384 193
23 49 27 70 27 147 0 77 -4 98 -27 148 -76 162 -270 244 -436 182 l-53 -19
-145 145 -145 145 21 65 c74 217 -82 445 -313 455 -43 3 -89 -2 -114 -10z
m441 -765 l139 -139 -21 -44 c-54 -112 -54 -211 0 -320 l34 -67 -137 -137
-138 -137 -62 33 c-105 56 -258 51 -339 -10 l-25 -19 -141 141 -142 141 32 66
c27 58 31 76 31 151 0 71 -4 94 -26 137 l-25 52 141 141 141 141 49 -23 c41
-19 67 -23 145 -23 84 0 101 3 145 27 28 14 52 27 55 27 3 1 68 -62 144 -138z"/>
</g>
</svg>
